<svg xmlns="http://www.w3.org/2000/svg" width="50.774" height="50.737" viewBox="0 0 50.774 50.737">
  <g id="Group_1589" data-name="Group 1589" transform="translate(6288.235 5706.957)">
    <ellipse id="Ellipse_1145" data-name="Ellipse 1145" cx="25.387" cy="25.368" rx="25.387" ry="25.368" transform="translate(-6288.235 -5706.957)" fill="#fff"/>
    <g id="Group_1588" data-name="Group 1588" opacity="0.5">
      <path id="Path_1369" data-name="Path 1369" d="M-6262.848-5706.957a25.285,25.285,0,0,1,17.944,7.437,25.321,25.321,0,0,1,7.443,17.932,25.245,25.245,0,0,1-7.443,17.931,25.357,25.357,0,0,1-17.944,7.437,25.358,25.358,0,0,1-17.945-7.437,25.176,25.176,0,0,1-7.442-17.931,25.252,25.252,0,0,1,7.442-17.932,25.36,25.36,0,0,1,17.945-7.437Zm-8.311,22.435a1.715,1.715,0,0,0-1.034.289.735.735,0,0,0-.289.331.864.864,0,0,0-.083.578,4.611,4.611,0,0,0,.992,2.4h0l2.068,3.3a16.643,16.643,0,0,0,2.811,3.677,5.694,5.694,0,0,0,3.97,1.612,5.79,5.79,0,0,0,4.217-1.694,17.877,17.877,0,0,0,2.894-3.925l2.357-3.843a3.73,3.73,0,0,0,.5-2.066c-.041-.248-.33-.33-.744-.372h-.785a3.818,3.818,0,0,1-.662-.041l.786-3.553c-5.954.95-10.42-3.471-16.705-.868l.414,4.215a3.73,3.73,0,0,1-.7-.042Zm-9.3,17.1c2.935-1.033,8.1-1.57,10.5-3.181.413-.537.868-1.2,1.282-1.777.248-.372.455-.7.661-.95l.124-.124a22.146,22.146,0,0,1-2.6-3.512l-2.067-3.305a5.789,5.789,0,0,1-1.2-3.016,2.172,2.172,0,0,1,.207-1.075,2.275,2.275,0,0,1,.7-.826,2.834,2.834,0,0,1,.5-.248,56.546,56.546,0,0,1-.083-5.949,7.956,7.956,0,0,1,.248-1.364,7.877,7.877,0,0,1,3.515-4.462,8.987,8.987,0,0,1,1.9-.909c1.2-.454.62-2.272,1.943-2.314,3.1-.082,8.187,2.562,10.171,4.71a7.815,7.815,0,0,1,2.026,5.082l-.124,5.413h0a1.532,1.532,0,0,1,1.117,1.115,4.6,4.6,0,0,1-.579,2.851h0c0,.042-.041.042-.041.083l-2.357,3.884a19.578,19.578,0,0,1-3.1,4.173l-.042.041h0c.166.207.331.454.5.7.33.455.661.992,1.033,1.488,2.192,1.859,7.98,2.437,11.04,3.553a22.529,22.529,0,0,0,5-14.213,22.536,22.536,0,0,0-6.616-15.99,22.57,22.57,0,0,0-16-6.61,22.572,22.572,0,0,0-16,6.61,22.538,22.538,0,0,0-6.616,15.99,22.107,22.107,0,0,0,4.962,14.13Zm24.064-2.148c-.579-.661-1.158-1.529-1.695-2.273-.166-.206-.29-.454-.455-.619a6.9,6.9,0,0,1-4.259,1.363,6.654,6.654,0,0,1-4.507-1.694.04.04,0,0,1-.041.041c-.207.29-.414.579-.662.951-.454.661-.951,1.363-1.4,1.983.041,4.173,10.584,6.652,13.024.248Z" fill="#b5b4b4"/>
    </g>
    <ellipse id="Ellipse_1146" data-name="Ellipse 1146" cx="25.387" cy="25.368" rx="25.387" ry="25.368" transform="translate(-6288.235 -5706.957)" fill="#fff" opacity="0.5"/>
  </g>
</svg>
