<svg xmlns="http://www.w3.org/2000/svg" width="14.26" height="14.259" viewBox="0 0 14.26 14.259">
  <g id="Group_766" data-name="Group 766" transform="translate(1664.792 6897.352)">
    <path id="Path_639" data-name="Path 639" d="M-1656.9-6887.665a3.336,3.336,0,0,1-2.005-.674l-.211-.16,1.032-1.036.159.1a1.891,1.891,0,0,0,1.024.3,1.868,1.868,0,0,0,1.315-.528l3.056-3.057a1.84,1.84,0,0,0,.542-1.312,1.86,1.86,0,0,0-1.856-1.859,1.837,1.837,0,0,0-1.313.545l-1.611,1.61-.136-.045a4.748,4.748,0,0,0-1.109-.23l-.5-.042,2.324-2.324a3.3,3.3,0,0,1,2.344-.971,3.321,3.321,0,0,1,3.316,3.316,3.293,3.293,0,0,1-.971,2.343l-3.057,3.057A3.293,3.293,0,0,1-1656.9-6887.665Z" fill="#d5a948"/>
    <path id="Path_640" data-name="Path 640" d="M-1661.476-6883.093a3.32,3.32,0,0,1-3.316-3.315,3.294,3.294,0,0,1,.971-2.344l3.057-3.057a3.329,3.329,0,0,1,2.345-.938,3.383,3.383,0,0,1,2,.641l.218.161-1.034,1.035-.157-.1a1.892,1.892,0,0,0-1.024-.295,1.859,1.859,0,0,0-1.314.528l-3.056,3.056a1.841,1.841,0,0,0-.544,1.314,1.859,1.859,0,0,0,1.857,1.856,1.838,1.838,0,0,0,1.312-.543l1.595-1.593.138.048a4.525,4.525,0,0,0,1.095.241l.493.045-2.288,2.289A3.3,3.3,0,0,1-1661.476-6883.093Z" fill="#d5a948"/>
  </g>
</svg>
