<svg xmlns="http://www.w3.org/2000/svg" width="23.642" height="17.737" viewBox="0 0 23.642 17.737">
  <g id="Group_760" data-name="Group 760" transform="translate(1684.605 6408.97)">
    <path id="Path_631" data-name="Path 631" d="M-1682.258-6393.6v-1.015c0-1.109,0-2.255.006-3.381v-.188l.141-.121c1.913-1.535,3.429-2.749,4.638-3.714l.258-.2s1.836,1.466,2.459,1.965l2.313-1.957.009-.007,2.37-2.005,1.723-1.457.262.242.353.316.009.008c.136.123.268.241.4.358l1.046.942.886.8c.628.565,1.265,1.138,1.9,1.705a.514.514,0,0,1,.183.411c-.006,1.92-.006,3.867-.006,5.749v1.551Zm17.841-1.113v-5.943c-1.054-.948-1.91-1.718-2.69-2.423l-.951-.859c-.1-.092-.2-.187-.308-.277l-6.368,5.389-2.479-1.988c-1.18.941-2.5,2-3.938,3.152v2.949Z" fill="#d5a948"/>
    <path id="Path_632" data-name="Path 632" d="M-1680.176-6402.466a2.081,2.081,0,0,1-2.082-2.076,2.081,2.081,0,0,1,2.076-2.081h.006a2.075,2.075,0,0,1,2.076,2.07,2.087,2.087,0,0,1-.6,1.471A2.053,2.053,0,0,1-1680.176-6402.466Zm-.006-3.05a.978.978,0,0,0-.974.98.978.978,0,0,0,.98.975.954.954,0,0,0,.687-.288.991.991,0,0,0,.287-.693A.978.978,0,0,0-1680.182-6405.516Z" fill="#d5a948"/>
    <path id="Path_633" data-name="Path 633" d="M-1682.091-6391.233a2.517,2.517,0,0,1-2.514-2.514v-12.709a2.517,2.517,0,0,1,2.514-2.514h18.614a2.517,2.517,0,0,1,2.514,2.514v12.709a2.517,2.517,0,0,1-2.514,2.514Zm0-16.7a1.478,1.478,0,0,0-1.476,1.476v12.709a1.478,1.478,0,0,0,1.476,1.476h18.614a1.478,1.478,0,0,0,1.476-1.476v-12.709a1.478,1.478,0,0,0-1.476-1.476Z" fill="#d5a948"/>
  </g>
</svg>
