<svg id="Layer_1" data-name="Layer 1" xmlns="http://www.w3.org/2000/svg" viewBox="0 0 30.5 28"><defs><style>.cls-1{fill:#d5a948;}</style></defs><path class="cls-1" d="M842.12,566.12a3.22,3.22,0,0,1-2.5-1.12,3,3,0,0,1-.78-1.71,2.51,2.51,0,0,1,0-.37V541.28a3.05,3.05,0,0,1,.63-1.83,3.32,3.32,0,0,1,2.07-1.29,2.33,2.33,0,0,1,.37,0h24.27a3.11,3.11,0,0,1,2,.78c.07.06.16.11.23.16l.11.13.17.24a3.23,3.23,0,0,1,.65,1.9v21.75a2.66,2.66,0,0,1-.41,1.36,3.2,3.2,0,0,1-2.08,1.57,3.89,3.89,0,0,1-.9.11H842.12Zm-1.85-3.46c0,.14,0,.27,0,.4a1.83,1.83,0,0,0,1.8,1.58h23.83l.39,0a1.82,1.82,0,0,0,1.52-1.79V545.94H840.27Z" transform="translate(-838.81 -538.12)"/><rect class="cls-1" x="6.01" y="11.19" width="4.37" height="4.36"/><rect class="cls-1" x="20.18" y="11.19" width="4.36" height="4.36"/><rect class="cls-1" x="13.1" y="11.19" width="4.37" height="4.36"/><rect class="cls-1" x="6.01" y="18.34" width="4.37" height="4.36"/><rect class="cls-1" x="13.1" y="18.33" width="4.37" height="4.36"/></svg>