<svg xmlns="http://www.w3.org/2000/svg" width="17.208" height="17.211" viewBox="0 0 17.208 17.211">
  <path id="Path_1692" data-name="Path 1692" d="M-4702.779-4879.321a5.68,5.68,0,0,1-2.054-.338c-.539-.187-1.077-.392-1.541-.567a10.719,10.719,0,0,1-2.86-1.677,21.963,21.963,0,0,1-3.1-3.057,13.674,13.674,0,0,1-2.423-4.731,4.852,4.852,0,0,1-.277-1.826,4.968,4.968,0,0,1,1.412-3.1,1.369,1.369,0,0,1,.588-.372c.428-.122.865-.214,1.288-.3a1.188,1.188,0,0,1,.269-.036.871.871,0,0,1,.772.5l.1.178c.165.3.331.6.5.9l1.133,1.915a.9.9,0,0,1-.109,1.14c-.228.238-.472.459-.708.673,0,0-.316.282-.428.378-.189.163-.324.28-.456.4-.149.136-.139.23-.074.338l.3.5c.312.524.633,1.062.988,1.561a9.578,9.578,0,0,0,3.006,2.67c.316.187.636.362,1.02.569l.024.013.1.026a.239.239,0,0,0,.173-.094c.149-.157.292-.321.436-.484l.44-.5c.156-.181.317-.367.5-.541a1.031,1.031,0,0,1,.711-.353,1.278,1.278,0,0,1,.645.216c.747.441,2.5,1.464,2.5,1.464l.446.256a.817.817,0,0,1,.422.806,4.914,4.914,0,0,1-.386,1.618,1.442,1.442,0,0,1-.343.476,4.94,4.94,0,0,1-3,1.39Z" transform="translate(4715.639 4895.932)" fill="none" stroke="#d5a948" stroke-miterlimit="10" stroke-width="1.2"/>
</svg>
