<svg xmlns="http://www.w3.org/2000/svg" width="26.327" height="29.911" viewBox="0 0 26.327 29.911">
  <g id="Group_33" data-name="Group 33" transform="translate(-477.869 -322.781)">
    <g id="Group_32" data-name="Group 32">
      <path id="Path_35" data-name="Path 35" d="M500.925,340.292a50.281,50.281,0,0,0-6.085-.313,47.744,47.744,0,0,0-5.4.343,5.453,5.453,0,0,0-1.193.246,2.711,2.711,0,0,1-.977.164h-8.418a2.786,2.786,0,0,0-.5,0,.552.552,0,0,0,0,1.089,3.481,3.481,0,0,0,.559,0h8.061a5.277,5.277,0,0,0,0,2.05,2.341,2.341,0,0,0,2.319,2.14,43.576,43.576,0,0,0,7.508,0l1.76-.134a5.272,5.272,0,0,1-.418.91,6.335,6.335,0,0,1-.9,1.006,14.592,14.592,0,0,1-9.738,3.833c-2.893.044-5.793,0-8.694,0a2.216,2.216,0,0,0-.552,0,.529.529,0,0,0-.38.6.485.485,0,0,0,.47.462h8.686a19.4,19.4,0,0,0,2.938-.239,15.61,15.61,0,0,0,8.344-4.168,4.2,4.2,0,0,0,1.4-2.818.747.747,0,0,1,.328-.545c.589-.559,1.17-1.133,1.73-1.722a2.437,2.437,0,0,0,.469-.746,1.381,1.381,0,0,0,.164-.6C502.461,341.008,501.864,340.486,500.925,340.292Zm-12.885,1.924c.149-.664.552-.887,1.432-.828a3.513,3.513,0,0,1-1.328,2.319A2.616,2.616,0,0,1,488.04,342.216Z" fill="#fff"/>
      <path id="Path_36" data-name="Path 36" d="M495.064,337.511a3.73,3.73,0,0,0,2.1-1.424,3.334,3.334,0,0,1-2.864.417,1.945,1.945,0,0,1-1.088-1,3.724,3.724,0,0,0,2.058-.552c-1.805.038-2.521-.454-2.446-1.685l.343.187a3.842,3.842,0,0,0,3.877-.045,3.219,3.219,0,0,0,1.156-1.253,2.636,2.636,0,0,1,1.424-1.126,1.448,1.448,0,0,1,1.924.671,1.331,1.331,0,0,1,.1.291,3.687,3.687,0,0,1-.3,2.774,5.788,5.788,0,0,1-5.22,3.065,5.847,5.847,0,0,1-1.074-.194Z" fill="#fff"/>
      <path id="Path_37" data-name="Path 37" d="M501.625,330.114a2.081,2.081,0,0,0-1.67-.2c.075-.216.119-.373.179-.522.746-1.946,1.581-3.885,2.327-5.816a3.19,3.19,0,0,1,.186-.4.844.844,0,0,1,.992-.343.813.813,0,0,1,.551.865,1.568,1.568,0,0,1-.1.381l-2.326,5.771A1.311,1.311,0,0,1,501.625,330.114Z" fill="#fff"/>
    </g>
  </g>
</svg>
