<svg id="Layer_1" data-name="Layer 1" xmlns="http://www.w3.org/2000/svg" viewBox="0 0 24.96 28"><defs><style>.cls-1{fill:#d5a948;}</style></defs><path class="cls-1" d="M841.58,566.12l.06-4.29a8,8,0,0,1,8-8h.31a6.33,6.33,0,0,0,4.16,1.64A6,6,0,0,0,858,554l.26-.15h.28a8,8,0,0,1,8,8v4.29Zm23.6-1.3.06-3a6.7,6.7,0,0,0-6.6-6.67,7.07,7.07,0,0,1-4.55,1.64,7.25,7.25,0,0,1-4.6-1.64,6.69,6.69,0,0,0-6.55,6.68v2.93Z" transform="translate(-841.58 -538.12)"/><path class="cls-1" d="M854.06,553.23a7.56,7.56,0,1,1,7.55-7.55A7.56,7.56,0,0,1,854.06,553.23Zm0-13.17a5.62,5.62,0,1,0,5.62,5.62A5.62,5.62,0,0,0,854.06,540.06Z" transform="translate(-841.58 -538.12)"/></svg>