<svg xmlns="http://www.w3.org/2000/svg" width="26.732" height="27.464" viewBox="0 0 26.732 27.464">
  <g id="Group_556" data-name="Group 556" transform="translate(6421.184 6379.734)">
    <rect id="Rectangle_875" data-name="Rectangle 875" width="7.156" height="7.156" rx="0.59" transform="translate(-6421.184 -6379.734)" fill="#d5a948"/>
    <rect id="Rectangle_876" data-name="Rectangle 876" width="7.156" height="7.156" rx="0.59" transform="translate(-6411.357 -6379.734)" fill="#d5a948"/>
    <rect id="Rectangle_877" data-name="Rectangle 877" width="7.156" height="7.156" rx="0.59" transform="translate(-6401.607 -6379.734)" fill="#d5a948"/>
    <rect id="Rectangle_878" data-name="Rectangle 878" width="7.156" height="7.156" rx="0.59" transform="translate(-6421.184 -6369.498)" fill="#d5a948"/>
    <rect id="Rectangle_879" data-name="Rectangle 879" width="7.156" height="7.156" rx="0.59" transform="translate(-6411.357 -6369.498)" fill="#d5a948"/>
    <rect id="Rectangle_880" data-name="Rectangle 880" width="7.156" height="7.156" rx="0.59" transform="translate(-6401.607 -6369.498)" fill="#d5a948"/>
    <rect id="Rectangle_881" data-name="Rectangle 881" width="7.156" height="7.156" rx="0.59" transform="translate(-6421.184 -6359.426)" fill="#d5a948"/>
    <rect id="Rectangle_882" data-name="Rectangle 882" width="7.156" height="7.156" rx="0.59" transform="translate(-6411.357 -6359.426)" fill="#d5a948"/>
    <rect id="Rectangle_883" data-name="Rectangle 883" width="7.156" height="7.156" rx="0.59" transform="translate(-6401.607 -6359.426)" fill="#d5a948"/>
    <circle id="Ellipse_379" data-name="Ellipse 379" cx="1.596" cy="1.596" r="1.596" transform="translate(-6419.202 -6377.752)" fill="#fff"/>
    <circle id="Ellipse_380" data-name="Ellipse 380" cx="1.596" cy="1.596" r="1.596" transform="translate(-6409.376 -6377.752)" fill="#fff"/>
    <circle id="Ellipse_381" data-name="Ellipse 381" cx="1.596" cy="1.596" r="1.596" transform="translate(-6399.625 -6377.752)" fill="#fff"/>
    <circle id="Ellipse_382" data-name="Ellipse 382" cx="1.596" cy="1.596" r="1.596" transform="translate(-6419.202 -6367.598)" fill="#fff"/>
    <circle id="Ellipse_383" data-name="Ellipse 383" cx="1.596" cy="1.596" r="1.596" transform="translate(-6409.376 -6367.598)" fill="#fff"/>
    <circle id="Ellipse_384" data-name="Ellipse 384" cx="1.596" cy="1.596" r="1.596" transform="translate(-6399.625 -6367.598)" fill="#fff"/>
    <circle id="Ellipse_385" data-name="Ellipse 385" cx="1.596" cy="1.596" r="1.596" transform="translate(-6419.202 -6357.444)" fill="#fff"/>
    <circle id="Ellipse_386" data-name="Ellipse 386" cx="1.596" cy="1.596" r="1.596" transform="translate(-6409.376 -6357.444)" fill="#fff"/>
    <circle id="Ellipse_387" data-name="Ellipse 387" cx="1.596" cy="1.596" r="1.596" transform="translate(-6399.625 -6357.444)" fill="#fff"/>
  </g>
</svg>
