<svg xmlns="http://www.w3.org/2000/svg" width="13.384" height="24.476" viewBox="0 0 13.384 24.476">
  <g id="Group_34" data-name="Group 34" transform="translate(-264.835 -397.535)">
    <path id="Path_40" data-name="Path 40" d="M270.982,397.535h.927v1.984a7.206,7.206,0,0,1,4.115,1.293,3.081,3.081,0,0,1,1.414,2.3,1.876,1.876,0,0,1-.349,1.09,1.115,1.115,0,0,1-.968.5,1.2,1.2,0,0,1-.821-.325,1.156,1.156,0,0,1-.366-.911,1.773,1.773,0,0,1,.39-.976,1.38,1.38,0,0,0,.309-.65c0-.38-.341-.734-1.025-1.066a7.606,7.606,0,0,0-2.7-.625v6.858a12.163,12.163,0,0,1,4.96,2.211,4.237,4.237,0,0,1,1.35,3.255,4.935,4.935,0,0,1-1.586,3.815,7.763,7.763,0,0,1-4.724,1.717v4h-.927v-4a6.871,6.871,0,0,1-4.375-1.39,4.133,4.133,0,0,1-1.772-3.342,1.715,1.715,0,0,1,.422-1.147,1.254,1.254,0,0,1,.976-.5,1.27,1.27,0,0,1,.992.438,1.468,1.468,0,0,1,.39,1.005,1.543,1.543,0,0,1-.894,1.395.522.522,0,0,0-.309.454q0,.714,1.3,1.508a7.239,7.239,0,0,0,3.269.941v-7.955q-3.822-1.135-4.716-2.4a4.552,4.552,0,0,1-.894-2.667,4.072,4.072,0,0,1,1.65-3.473,7.155,7.155,0,0,1,3.96-1.358Zm0,2.619a6.511,6.511,0,0,0-3.139.975,2.525,2.525,0,0,0-1.154,2.2,2.4,2.4,0,0,0,1.016,1.984,9.8,9.8,0,0,0,3.277,1.4Zm.927,17.222a5.156,5.156,0,0,0,3.4-1.136,3.267,3.267,0,0,0,1.236-2.515,3.145,3.145,0,0,0-.87-2.141,9.144,9.144,0,0,0-3.765-1.917Z" fill="#fff"/>
  </g>
</svg>
