<svg xmlns="http://www.w3.org/2000/svg" width="39.915" height="39.916" viewBox="0 0 39.915 39.916">
  <g id="Group_2282" data-name="Group 2282" transform="translate(1976.171 7240.518)">
    <circle id="Ellipse_551" data-name="Ellipse 551" cx="19.708" cy="19.708" r="19.708" transform="translate(-1975.921 -7240.268)" fill="#f9f9f9" stroke="#ddd" stroke-miterlimit="10" stroke-width="0.5"/>
    <g id="Group_756" data-name="Group 756">
      <path id="Path_625" data-name="Path 625" d="M-1956.213-7220.218a3.92,3.92,0,0,1-3.915-3.916,3.919,3.919,0,0,1,3.915-3.915,3.919,3.919,0,0,1,3.915,3.915A3.92,3.92,0,0,1-1956.213-7220.218Zm0-7.128a3.216,3.216,0,0,0-3.212,3.212,3.216,3.216,0,0,0,3.212,3.212,3.216,3.216,0,0,0,3.212-3.212A3.216,3.216,0,0,0-1956.213-7227.346Z" fill="#97bfb2"/>
      <path id="Path_626" data-name="Path 626" d="M-1962.967-7213.071l.034-2.325a4.324,4.324,0,0,1,4.319-4.318h.167a3.417,3.417,0,0,0,2.25.89,3.2,3.2,0,0,0,2.125-.8l.142-.078.152-.01a4.323,4.323,0,0,1,4.317,4.319v2.324Zm12.773-.7.031-1.622a3.627,3.627,0,0,0-3.571-3.613,3.8,3.8,0,0,1-2.463.89,3.915,3.915,0,0,1-2.487-.89,3.628,3.628,0,0,0-3.546,3.615v1.588Z" fill="#97bfb2"/>
    </g>
  </g>
</svg>
