<svg xmlns="http://www.w3.org/2000/svg" width="17.504" height="17.504" viewBox="0 0 17.504 17.504">
  <g id="Group_2096" data-name="Group 2096" transform="translate(4781.272 4896.079)">
    <path id="Path_1693" data-name="Path 1693" d="M-4764.407-4890.8l-.773.774-4.642-4.642.773-.774a2.191,2.191,0,0,1,3.1,0l1.546,1.547A2.193,2.193,0,0,1-4764.407-4890.8Zm-10.831,9.281a.546.546,0,0,0,0,.774.545.545,0,0,0,.773,0l8.512-8.508-.776-.773Zm-3.869-3.867a.547.547,0,0,0,0,.774.547.547,0,0,0,.774,0l8.511-8.508-.774-.773Zm3.092,5.413a1.59,1.59,0,0,1-.434-.936,2.27,2.27,0,0,1-.338.033,2.171,2.171,0,0,1-1.546-.641,2.176,2.176,0,0,1-.642-1.547,2.164,2.164,0,0,1,.031-.314,1.632,1.632,0,0,1-.938-.459.71.71,0,0,1-.055-.084l-1.335,5.343,5.33-1.335C-4775.965-4879.93-4775.992-4879.946-4776.015-4879.969Z" fill="#d5a948"/>
  </g>
</svg>
