<svg xmlns="http://www.w3.org/2000/svg" width="16" height="16" viewBox="0 0 16 16">
  <g id="Group_2280" data-name="Group 2280" transform="translate(6531.773 6924.288)">
    <path id="Path_448" data-name="Path 448" d="M-6520.2-6908.288a5.666,5.666,0,0,1-2.04-.334c-.457-.158-.912-.329-1.314-.48a10.4,10.4,0,0,1-2.8-1.62,20.51,20.51,0,0,1-2.861-2.822,12.828,12.828,0,0,1-2.278-4.43,4.882,4.882,0,0,1-.272-1.839,4.971,4.971,0,0,1,1.409-3.108,1.736,1.736,0,0,1,.757-.474c.4-.113.8-.2,1.183-.281a1.713,1.713,0,0,1,.363-.047,1.3,1.3,0,0,1,1.143.709l.088.161c.159.291.3.547.448.8l1.018,1.72a1.315,1.315,0,0,1-.17,1.642c-.21.217-.433.421-.649.618l-.66.58.149.249c.288.484.561.942.867,1.373a8.138,8.138,0,0,0,2.55,2.26c.208.122.417.238.649.365l.049.026.63-.713c.146-.17.3-.351.479-.521a1.4,1.4,0,0,1,.986-.464,1.669,1.669,0,0,1,.848.272c.672.4,2.251,1.318,2.251,1.318l.4.226a1.242,1.242,0,0,1,.636,1.206,4.911,4.911,0,0,1-.389,1.625,1.819,1.819,0,0,1-.432.6,4.964,4.964,0,0,1-3.027,1.386Zm-7.852-14.414a.651.651,0,0,0-.141.022c-.375.079-.751.16-1.12.264a.73.73,0,0,0-.3.194,3.976,3.976,0,0,0-1.134,2.48,3.888,3.888,0,0,0,.226,1.45,11.848,11.848,0,0,0,2.086,4.085,19.253,19.253,0,0,0,2.717,2.683,9.2,9.2,0,0,0,2.438,1.433c.492.186.932.351,1.374.5a4.616,4.616,0,0,0,1.681.277,3.927,3.927,0,0,0,2.371-1.116.781.781,0,0,0,.185-.256,3.887,3.887,0,0,0,.308-1.288.232.232,0,0,0-.13-.252l-.4-.224-2.257-1.323a.716.716,0,0,0-.321-.124.545.545,0,0,0-.288.175c-.144.14-.272.287-.4.431l-.42.477c-.152.174-.276.314-.4.449a.7.7,0,0,1-.529.245l-.212-.039-.142-.058c-.349-.189-.643-.35-.933-.521a9.111,9.111,0,0,1-2.863-2.547c-.334-.469-.64-.982-.907-1.434l-.275-.457a.714.714,0,0,1,.161-.944c.117-.108.238-.212.4-.355l.4-.351c.233-.213.428-.39.609-.58a.3.3,0,0,0,.028-.411l-1.021-1.725c-.16-.273-.311-.549-.461-.825l-.088-.157A.288.288,0,0,0-6528.052-6922.7Z" transform="translate(0)" fill="#d5a948"/>
    <g id="Group_536" data-name="Group 536" transform="translate(-6522.149 -6924.288)">
      <g id="Group_535" data-name="Group 535">
        <g id="Group_533" data-name="Group 533">
          <path id="Path_449" data-name="Path 449" d="M-6521.635-6917.911a.563.563,0,0,1-.4-.165.566.566,0,0,1,0-.8l5.247-5.247a.565.565,0,0,1,.8,0,.565.565,0,0,1,0,.8l-5.247,5.248A.565.565,0,0,1-6521.635-6917.911Z" transform="translate(6522.199 6924.288)" fill="#d5a948"/>
        </g>
        <g id="Group_534" data-name="Group 534" transform="translate(0 0.733)">
          <path id="Path_450" data-name="Path 450" d="M-6517.12-6917.911h-5.079v-5.079a.565.565,0,0,1,.564-.564.565.565,0,0,1,.565.564v3.95h3.95a.564.564,0,0,1,.565.565A.564.564,0,0,1-6517.12-6917.911Z" transform="translate(6522.199 6923.554)" fill="#d5a948"/>
        </g>
      </g>
    </g>
  </g>
</svg>
