<svg xmlns="http://www.w3.org/2000/svg" width="11.621" height="16.587" viewBox="0 0 11.621 16.587">
  <g id="Group_2022" data-name="Group 2022" transform="translate(6269.904 4528.357)">
    <g id="Group_2021" data-name="Group 2021">
      <path id="Path_1619" data-name="Path 1619" d="M-6268.751-4518.5a6.61,6.61,0,0,1,.549-8.157,5.771,5.771,0,0,1,4.11-1.7,5.775,5.775,0,0,1,4.111,1.7,6.62,6.62,0,0,1,.539,8.169l-4.65,6.716Zm4.659-9.051a4.967,4.967,0,0,0-3.538,1.466,5.758,5.758,0,0,0-.466,7.113l4,5.782,3.995-5.77a5.768,5.768,0,0,0-.456-7.125A4.97,4.97,0,0,0-6264.092-4527.549Z" fill="#97bfb2"/>
      <path id="Path_1620" data-name="Path 1620" d="M-6264.039-4519.872a2.729,2.729,0,0,1-2.726-2.725,2.728,2.728,0,0,1,2.726-2.724,2.727,2.727,0,0,1,2.724,2.724A2.728,2.728,0,0,1-6264.039-4519.872Zm0-4.59a1.868,1.868,0,0,0-1.866,1.865,1.869,1.869,0,0,0,1.866,1.867,1.869,1.869,0,0,0,1.866-1.867A1.868,1.868,0,0,0-6264.039-4524.462Z" fill="#97bfb2"/>
    </g>
  </g>
</svg>
