<svg id="Layer_1" data-name="Layer 1" xmlns="http://www.w3.org/2000/svg" viewBox="0 0 29.19 28"><defs><style>.cls-1{fill:#d5a948;}</style></defs><path class="cls-1" d="M846.56,566.12a.7.7,0,0,1-.77-.72c-.17-1.65-.35-3.31-.52-5l-.25-2.28c-.11-1.06-.22-2.13-.35-3.19a.44.44,0,0,0-.2-.28,3.75,3.75,0,0,1-1.91-1.85c-.09-.21-.19-.25-.34-.25l-.35,0h-.37a2,2,0,0,1-2-2c0-.89,0-1.79,0-2.78a2,2,0,0,1,1.66-1.92,3.57,3.57,0,0,1,.76-.07h.14c.19,0,.26,0,.32-.22a3.68,3.68,0,0,1,3.7-2.68H850a29.77,29.77,0,0,0,9-1.6c.64-.23,1.28-.5,1.9-.76l1-.4a.42.42,0,0,0,.3-.42,1.78,1.78,0,0,1,2-1.65h.15a1.74,1.74,0,0,1,1.77,1.79c0,1.61,0,3.22,0,4.84a.34.34,0,0,0,.24.38,3.88,3.88,0,0,1,0,7.12.36.36,0,0,0-.25.42c0,1.62,0,3.24,0,4.87v.31a1.74,1.74,0,0,1-2,1.88,2,2,0,0,1-1.49-.53,1.78,1.78,0,0,1-.48-1.33.49.49,0,0,0-.37-.57A28.79,28.79,0,0,0,850.63,555h-.75v2.7c0,.84-.22,1.14-1,1.38-.18.05-.17.11-.15.31q.3,2.92.58,5.8a.72.72,0,0,1-.86,1h-1.88Zm17.5-26.9a.82.82,0,0,0-.6.2,1.07,1.07,0,0,0-.23.77q0,4.13,0,8.23v9.38c0,.39,0,.64.29.7a2.29,2.29,0,0,0,.6.08,2,2,0,0,0,.56-.07c.26-.07.28-.36.28-.74V540c0-.3-.08-.67-.49-.73A2,2,0,0,0,864.06,539.22Zm-12.6,14.62a31.67,31.67,0,0,1,10.66,2.41v-15l-.18.08A30.59,30.59,0,0,1,851.79,544c-.29,0-.35.08-.34.38q0,3.49,0,7Zm-5.23-9.78-.47,0a2.58,2.58,0,0,0-2.45,2.61c0,1.54,0,3.1,0,4.64a2.54,2.54,0,0,0,2.64,2.52h4.37v-9.78h-4.1Z" transform="translate(-839.47 -538.12)"/></svg>