<svg xmlns="http://www.w3.org/2000/svg" width="17.455" height="17.608" viewBox="0 0 17.455 17.608">
  <path id="Path_1891" data-name="Path 1891" d="M-6587.66-2822.14l2.735-2.623a.551.551,0,0,1,.377-.152h8.6a.309.309,0,0,0,.31-.307v-11.285a.313.313,0,0,0-.092-.218.314.314,0,0,0-.218-.092h-14.641a.321.321,0,0,0-.311.31v11.281a.313.313,0,0,0,.311.309h2.384a.549.549,0,0,1,.548.549v2.228Zm-.263-6.667a.548.548,0,0,1-.548-.549.548.548,0,0,1,.548-.548h7.595a.549.549,0,0,1,.549.548.549.549,0,0,1-.549.549Zm0-3.562a.55.55,0,0,1-.576-.52.549.549,0,0,1,.52-.576h9.37a.548.548,0,0,1,.52.576.549.549,0,0,1-.52.52Zm3.6,8.549-3.478,3.335a.546.546,0,0,1-.773.035.545.545,0,0,1-.178-.406v-2.964h-1.836a1.414,1.414,0,0,1-1.407-1.406v-11.281a1.417,1.417,0,0,1,1.407-1.407h14.641a1.414,1.414,0,0,1,1.407,1.407v11.281a1.411,1.411,0,0,1-1.407,1.406Z" transform="translate(6591.999 2837.914)" fill="#a5a5a5"/>
</svg>
