<svg xmlns="http://www.w3.org/2000/svg" width="16.984" height="14.572" viewBox="0 0 16.984 14.572">
  <g id="Group_539" data-name="Group 539" transform="translate(6531.476 6841.621)">
    <g id="Group_538" data-name="Group 538">
      <path id="Path_453" data-name="Path 453" d="M-6516.863-6839.44a9.528,9.528,0,0,0-5.905-2.176h-.007a9.537,9.537,0,0,0-6.029,1.824,6.358,6.358,0,0,0-2.669,4.856,5.868,5.868,0,0,0,.639,2.829,7.088,7.088,0,0,0,1.726,2.168l-1.215,2.89,3.636-1.43a9.917,9.917,0,0,0,1.615.5,10.367,10.367,0,0,0,1.88.225,9.538,9.538,0,0,0,6.029-1.824,6.358,6.358,0,0,0,2.669-4.848v-.013A6.346,6.346,0,0,0-6516.863-6839.44Zm1.535,4.966v.013a5.535,5.535,0,0,1-2.339,4.215,8.7,8.7,0,0,1-5.5,1.654,9.556,9.556,0,0,1-1.73-.209,8.922,8.922,0,0,1-1.621-.513l-.158-.067-2.108.829.69-1.641-.249-.2a6.356,6.356,0,0,1-1.743-2.093,5.033,5.033,0,0,1-.551-2.43,5.539,5.539,0,0,1,2.338-4.215,8.7,8.7,0,0,1,5.5-1.654h.007a8.684,8.684,0,0,1,5.382,1.976A5.529,5.529,0,0,1-6515.328-6834.474Z" fill="#d5a948"/>
    </g>
  </g>
</svg>
