<svg xmlns="http://www.w3.org/2000/svg" width="16" height="16" viewBox="0 0 16 16">
  <g id="Group_2279" data-name="Group 2279" transform="translate(6531.792 7005.135)">
    <path id="Path_443" data-name="Path 443" d="M-6520.314-6989.135a5.494,5.494,0,0,1-2.023-.341c-.453-.162-.9-.337-1.3-.493a10.184,10.184,0,0,1-2.775-1.659,20.568,20.568,0,0,1-2.839-2.89,13.307,13.307,0,0,1-2.259-4.535,5.146,5.146,0,0,1-.27-1.883,5.17,5.17,0,0,1,1.4-3.183,1.725,1.725,0,0,1,.751-.485c.4-.116.8-.206,1.173-.287a1.608,1.608,0,0,1,.36-.048,1.275,1.275,0,0,1,1.134.726l.087.165c.158.3.3.56.444.818l1.01,1.761a1.378,1.378,0,0,1-.169,1.682c-.208.223-.429.431-.644.632l-.654.594.148.255c.286.5.557.963.86,1.4a8.152,8.152,0,0,0,2.529,2.315c.206.125.414.244.645.374l.048.027.625-.73a7.134,7.134,0,0,1,.475-.533,1.371,1.371,0,0,1,.978-.477,1.624,1.624,0,0,1,.842.279c.666.406,2.232,1.349,2.232,1.349l.394.232a1.283,1.283,0,0,1,.63,1.235,5.15,5.15,0,0,1-.386,1.663,1.829,1.829,0,0,1-.428.615,4.855,4.855,0,0,1-3,1.419Zm-7.788-14.757a.63.63,0,0,0-.138.022c-.373.081-.746.162-1.112.269a.743.743,0,0,0-.3.2,4.136,4.136,0,0,0-1.124,2.539,4.116,4.116,0,0,0,.224,1.486,12.3,12.3,0,0,0,2.068,4.183,19.5,19.5,0,0,0,2.695,2.747,9.061,9.061,0,0,0,2.418,1.466c.489.191.924.36,1.362.517a4.44,4.44,0,0,0,1.668.284,3.849,3.849,0,0,0,2.35-1.145.81.81,0,0,0,.184-.262,4.11,4.11,0,0,0,.3-1.32.239.239,0,0,0-.13-.257l-.392-.229-2.239-1.354a.68.68,0,0,0-.318-.127.551.551,0,0,0-.286.179c-.142.143-.27.294-.392.442l-.416.488c-.152.177-.274.32-.4.46a.684.684,0,0,1-.523.25l-.211-.039-.141-.06c-.347-.2-.638-.36-.925-.535a9.142,9.142,0,0,1-2.841-2.608c-.331-.48-.632-1-.9-1.468l-.271-.469a.744.744,0,0,1,.159-.966c.114-.109.235-.217.4-.363l.4-.359c.232-.218.424-.4.6-.592a.318.318,0,0,0,.028-.42l-1.013-1.766c-.158-.281-.309-.563-.458-.845l-.086-.162A.287.287,0,0,0-6528.1-7003.892Z" fill="#d5a948"/>
    <g id="Group_531" data-name="Group 531" transform="translate(-6522.467 -7005.135)">
      <g id="Group_530" data-name="Group 530">
        <g id="Group_527" data-name="Group 527">
          <g id="Group_526" data-name="Group 526">
            <path id="Path_444" data-name="Path 444" d="M-6521.827-6998.458a.566.566,0,0,1-.4-.166.565.565,0,0,1,0-.8l5.547-5.547a.565.565,0,0,1,.8,0,.567.567,0,0,1,0,.8l-5.547,5.546A.569.569,0,0,1-6521.827-6998.458Z" transform="translate(6522.391 7005.135)" fill="#d5a948"/>
          </g>
        </g>
        <g id="Group_529" data-name="Group 529">
          <g id="Group_528" data-name="Group 528">
            <path id="Path_445" data-name="Path 445" d="M-6516.28-6998.458a.566.566,0,0,1-.4-.166l-5.547-5.546a.567.567,0,0,1,0-.8.565.565,0,0,1,.8,0l5.547,5.547a.565.565,0,0,1,0,.8A.568.568,0,0,1-6516.28-6998.458Z" transform="translate(6522.391 7005.135)" fill="#d5a948"/>
          </g>
        </g>
      </g>
    </g>
  </g>
</svg>
