<svg xmlns="http://www.w3.org/2000/svg" width="19.03" height="23.238" viewBox="0 0 19.03 23.238">
  <path id="Path_276" data-name="Path 276" d="M5484.6,843.957h2.095a1.93,1.93,0,0,1,3.848-.021l2.124.021a.213.213,0,0,1,.213.214v2.354a.213.213,0,0,1-.213.214H5484.6a.215.215,0,0,1-.214-.214v-2.354A.211.211,0,0,1,5484.6,843.957Zm10.082,12a4.725,4.725,0,1,1-4.725,4.725A4.724,4.724,0,0,1,5494.683,855.957Zm-.3,2.9a.363.363,0,0,1,.146-.309c.244-.163.484.059.654.213l1.669,1.642a.362.362,0,0,1,0,.559l-1.715,1.681c-.162.145-.383.323-.608.173a.367.367,0,0,1-.146-.311V861.7h-1.258a.441.441,0,0,1-.438-.439v-1.151a.44.44,0,0,1,.438-.439h1.258v-.81Zm-12.11-14h1.087v1.108h-1.087a.79.79,0,0,0-.788.787v14.331a.792.792,0,0,0,.788.788h6.477a6.067,6.067,0,0,0,.335,1.107h-6.812a1.9,1.9,0,0,1-1.9-1.895V846.754a1.9,1.9,0,0,1,1.9-1.9Zm13.514,9.873v-7.978a.79.79,0,0,0-.788-.787h-1.087v-1.108H5495a1.905,1.905,0,0,1,1.9,1.9v8.294a5.964,5.964,0,0,0-1.107-.316Zm-9.39-.367a.587.587,0,0,1,0-1.174h6.487a.587.587,0,1,1,0,1.174Zm-1.954-1.242a.656.656,0,1,1-.656.655A.655.655,0,0,1,5484.442,853.123Zm0,3.571a.656.656,0,1,1-.656.656A.655.655,0,0,1,5484.442,856.694Zm1.955,1.242a.587.587,0,0,1,0-1.174h3.677a5.953,5.953,0,0,0-.784,1.174Zm-1.955-8.384a.656.656,0,1,1-.656.656A.656.656,0,0,1,5484.442,849.552Zm1.954,1.243a.587.587,0,0,1,0-1.174h6.487a.587.587,0,1,1,0,1.174Zm2.2-7.712a1.011,1.011,0,1,1-1.011,1.011A1.011,1.011,0,0,1,5488.6,843.083Z" transform="translate(-5480.377 -842.168)" fill="#d5a948" fill-rule="evenodd"/>
</svg>
