<svg id="Layer_1" data-name="Layer 1" xmlns="http://www.w3.org/2000/svg" viewBox="0 0 22.3 28"><defs><style>.cls-1{fill:#d5a948;}</style></defs><path class="cls-1" d="M854.07,566.12a3.1,3.1,0,0,1-.92-.13,3.4,3.4,0,0,1-2.38-2.46l-6.34-.17a1.9,1.9,0,0,1-.4-.05,1.52,1.52,0,0,1-1-.91,1.48,1.48,0,0,1,.35-1.65,9.91,9.91,0,0,0,3-6.92l0-4.45a7.84,7.84,0,0,1,5.3-7.31l.1-1.46a2.52,2.52,0,0,1,5,.06l0,1.37a8,8,0,0,1,5.21,7.52l0,4.44a9.83,9.83,0,0,0,2.81,7,1.53,1.53,0,0,1,.38,1.47,1.51,1.51,0,0,1-1.47,1.11l-6.26-.07a3.89,3.89,0,0,1-1.54,2.07A3.4,3.4,0,0,1,854.07,566.12Zm-.45-22.89a3.63,3.63,0,0,0-.92.11,6.31,6.31,0,0,0-4.8,6.06l0,4.44a11.73,11.73,0,0,1-.42,2.94,11.45,11.45,0,0,1-2.82,4.87l-.15.16.17.05,19.39.23-.27-.26-.32-.06a11.38,11.38,0,0,1-2.95-7.78l0-4.44a6.32,6.32,0,0,0-4.6-6.16l-.33-.08A18.21,18.21,0,0,0,853.62,543.23Z" transform="translate(-842.92 -538.12)"/></svg>