<svg xmlns="http://www.w3.org/2000/svg" width="16" height="16" viewBox="0 0 16 16">
  <g id="Group_2281" data-name="Group 2281" transform="translate(6531.792 6757.468)">
    <path id="Path_456" data-name="Path 456" d="M-6520.219-6741.467a5.687,5.687,0,0,1-2.04-.333c-.457-.157-.911-.329-1.313-.481a10.34,10.34,0,0,1-2.8-1.62,20.411,20.411,0,0,1-2.862-2.823,12.841,12.841,0,0,1-2.277-4.43,4.874,4.874,0,0,1-.271-1.839,4.968,4.968,0,0,1,1.408-3.109,1.745,1.745,0,0,1,.757-.475c.4-.113.8-.2,1.183-.28a1.649,1.649,0,0,1,.363-.047,1.29,1.29,0,0,1,1.143.709l.088.16c.16.291.3.547.448.8l1.019,1.721a1.312,1.312,0,0,1-.17,1.642c-.21.218-.433.422-.649.618l-.66.58.149.249c.288.484.561.941.867,1.371a8.134,8.134,0,0,0,2.55,2.261c.208.122.417.239.65.365l.048.026.631-.713a6.985,6.985,0,0,1,.479-.521,1.4,1.4,0,0,1,.985-.465,1.674,1.674,0,0,1,.849.273c.671.4,2.25,1.317,2.25,1.317l.4.227a1.242,1.242,0,0,1,.636,1.206,4.926,4.926,0,0,1-.389,1.624,1.785,1.785,0,0,1-.432.6,4.963,4.963,0,0,1-3.026,1.386Zm-7.852-14.414a.64.64,0,0,0-.14.022c-.376.079-.751.158-1.121.262a.752.752,0,0,0-.3.194,3.983,3.983,0,0,0-1.134,2.48,3.914,3.914,0,0,0,.226,1.452,11.869,11.869,0,0,0,2.086,4.085,19.353,19.353,0,0,0,2.717,2.682,9.183,9.183,0,0,0,2.438,1.433c.493.187.932.353,1.374.5a4.6,4.6,0,0,0,1.682.277,3.933,3.933,0,0,0,2.37-1.117.79.79,0,0,0,.186-.256,3.905,3.905,0,0,0,.307-1.289.231.231,0,0,0-.131-.25l-.4-.225-2.257-1.322a.7.7,0,0,0-.321-.125.561.561,0,0,0-.288.174c-.144.14-.271.288-.4.433l-.419.477c-.153.173-.277.313-.4.449a.7.7,0,0,1-.527.245l-.213-.038-.142-.058c-.35-.191-.644-.351-.933-.523a9.107,9.107,0,0,1-2.864-2.546c-.334-.469-.638-.981-.907-1.434l-.273-.458a.711.711,0,0,1,.16-.944c.115-.106.237-.212.4-.354l.4-.352c.234-.212.427-.389.609-.579a.3.3,0,0,0,.028-.41l-1.021-1.726c-.159-.274-.311-.55-.461-.824l-.087-.159A.289.289,0,0,0-6528.071-6755.881Z" transform="translate(0 0)" fill="#d5a948"/>
    <g id="Group_544" data-name="Group 544" transform="translate(-6522.168 -6757.468)">
      <g id="Group_543" data-name="Group 543">
        <g id="Group_541" data-name="Group 541">
          <path id="Path_457" data-name="Path 457" d="M-6521.653-6751.092a.565.565,0,0,1-.4-.166.566.566,0,0,1,0-.8l5.247-5.247a.567.567,0,0,1,.8,0,.565.565,0,0,1,0,.8l-5.247,5.246A.56.56,0,0,1-6521.653-6751.092Z" transform="translate(6522.218 6757.468)" fill="#d5a948"/>
        </g>
        <g id="Group_542" data-name="Group 542" transform="translate(0.732)">
          <path id="Path_458" data-name="Path 458" d="M-6516.406-6751.825a.565.565,0,0,1-.565-.564v-3.95h-3.95a.564.564,0,0,1-.565-.565.564.564,0,0,1,.565-.564h5.079v5.079A.564.564,0,0,1-6516.406-6751.825Z" transform="translate(6521.486 6757.468)" fill="#d5a948"/>
        </g>
      </g>
    </g>
  </g>
</svg>
