<svg xmlns="http://www.w3.org/2000/svg" width="40.656" height="40.656" viewBox="0 0 40.656 40.656">
  <g id="Group_2278" data-name="Group 2278" transform="translate(6587.312 7032.18)">
    <circle id="Ellipse_367" data-name="Ellipse 367" cx="20.078" cy="20.078" r="20.078" transform="translate(-6587.062 -7031.93)" fill="#f9f9f9" stroke="#ddd" stroke-miterlimit="10" stroke-width="0.5"/>
    <g id="Group_525" data-name="Group 525">
      <path id="Path_441" data-name="Path 441" d="M-6566.983-7011.5a3.994,3.994,0,0,1-3.989-3.989,3.993,3.993,0,0,1,3.989-3.989,3.993,3.993,0,0,1,3.988,3.989A3.993,3.993,0,0,1-6566.983-7011.5Zm0-7.261a3.276,3.276,0,0,0-3.273,3.272,3.276,3.276,0,0,0,3.273,3.272,3.277,3.277,0,0,0,3.273-3.272A3.276,3.276,0,0,0-6566.983-7018.764Z" fill="#97bfb2"/>
      <path id="Path_442" data-name="Path 442" d="M-6573.864-7004.222l.035-2.368a4.4,4.4,0,0,1,4.4-4.4h.17a3.481,3.481,0,0,0,2.292.907,3.262,3.262,0,0,0,2.165-.817l.145-.081.155-.009a4.4,4.4,0,0,1,4.4,4.4v2.367Zm13.013-.717.031-1.652a3.7,3.7,0,0,0-3.638-3.681,3.872,3.872,0,0,1-2.509.907,3.987,3.987,0,0,1-2.534-.907,3.7,3.7,0,0,0-3.613,3.683v1.618Z" fill="#97bfb2"/>
    </g>
  </g>
</svg>
