<svg xmlns="http://www.w3.org/2000/svg" width="14" height="14" viewBox="0 0 14 14">
  <path id="Path_465" data-name="Path 465" d="M-6225.9-7073.878a.808.808,0,0,1-.574-.25c-.8-.787-1.6-1.581-2.38-2.388a.757.757,0,0,1-.235-.516c.064-.388-.156-.578-.39-.778l-.028-.025-.042.022a5.687,5.687,0,0,1-3.775,1.423,5.836,5.836,0,0,1-4.49-2.112,5.777,5.777,0,0,1,.487-7.788,5.587,5.587,0,0,1,3.948-1.589,5.815,5.815,0,0,1,3.729,1.349,5.749,5.749,0,0,1,2.015,3.921,5.91,5.91,0,0,1-1.457,4.355l.1.088a2.151,2.151,0,0,0,.255.206.489.489,0,0,0,.236.084,1.447,1.447,0,0,1,.2-.018.786.786,0,0,1,.563.241c.806.8,1.61,1.6,2.4,2.406a.792.792,0,0,1,.238.574.8.8,0,0,1-.256.565A.777.777,0,0,1-6225.9-7073.878Zm-7.473-13.047a4.772,4.772,0,0,0-4.773,4.748,4.826,4.826,0,0,0,1.392,3.426,4.751,4.751,0,0,0,3.4,1.407,4.794,4.794,0,0,0,4.787-4.776,4.788,4.788,0,0,0-1.4-3.405,4.765,4.765,0,0,0-3.4-1.4l-.008-.2Z" transform="translate(6239.094 7087.878)" fill="#97bfb2"/>
</svg>
