<svg id="Layer_1" data-name="Layer 1" xmlns="http://www.w3.org/2000/svg" viewBox="0 0 22.37 28"><defs><style>.cls-1{fill:#d5a948;}</style></defs><polygon class="cls-1" points="6.13 28 4.65 26.83 3.17 28 3.17 23.87 6.13 23.87 6.13 28"/><polygon class="cls-1" points="21.22 3.59 18.78 1.15 21.22 1.15 21.22 3.59"/><polygon class="cls-1" points="18.78 21.23 21.22 18.79 21.22 21.23 18.78 21.23"/><path class="cls-1" d="M846.05,564.86a2.83,2.83,0,0,1-2-.73h0a.3.3,0,0,1-.14-.1,3.4,3.4,0,0,1-.8-1.31,5,5,0,0,1-.26-1.64V542.42a4.15,4.15,0,0,1,1.24-3,4.59,4.59,0,0,1,3-1.33h17.41a.69.69,0,0,1,.69.69v21.08l0,.1h0s0,0,0,.1v3.56a1.19,1.19,0,0,1-.35.85,1.22,1.22,0,0,1-.86.36Zm0-4.49a1.52,1.52,0,0,0-1.51.94,1.77,1.77,0,0,0-.13.69,1.83,1.83,0,0,0,0,.33,2,2,0,0,0,.47.74,2.62,2.62,0,0,0,1.15.55h18l0-3.25Zm17.82-1.24V539.49H848.5v19.64Z" transform="translate(-842.87 -538.12)"/></svg>