<svg xmlns="http://www.w3.org/2000/svg" width="19.219" height="21.834" viewBox="0 0 19.219 21.834">
  <g id="Group_399" data-name="Group 399" transform="translate(-760.463 -789.504)">
    <path id="Path_317" data-name="Path 317" d="M777.294,802.287a36.627,36.627,0,0,0-4.442-.229,35.1,35.1,0,0,0-3.941.25,4.03,4.03,0,0,0-.87.18,1.993,1.993,0,0,1-.713.12h-6.146a2.014,2.014,0,0,0-.364,0,.4.4,0,0,0,0,.794,2.516,2.516,0,0,0,.408,0h5.884a3.85,3.85,0,0,0,0,1.5,1.708,1.708,0,0,0,1.693,1.562,31.745,31.745,0,0,0,5.481,0l1.284-.1a3.763,3.763,0,0,1-.3.664,4.594,4.594,0,0,1-.658.735,10.652,10.652,0,0,1-7.109,2.8c-2.112.033-4.229,0-6.346,0a1.7,1.7,0,0,0-.4,0,.387.387,0,0,0-.278.441.353.353,0,0,0,.343.337h6.341a14,14,0,0,0,2.145-.174,11.4,11.4,0,0,0,6.091-3.042,3.065,3.065,0,0,0,1.023-2.058.546.546,0,0,1,.239-.4c.43-.409.855-.828,1.263-1.258a1.759,1.759,0,0,0,.343-.544,1.02,1.02,0,0,0,.12-.435C778.415,802.809,777.98,802.428,777.294,802.287Zm-9.406,1.4c.109-.485.4-.648,1.045-.6a2.561,2.561,0,0,1-.969,1.693A1.91,1.91,0,0,1,767.888,803.691Z" fill="#fff"/>
    <path id="Path_318" data-name="Path 318" d="M773.016,800.256a2.721,2.721,0,0,0,1.534-1.039,2.437,2.437,0,0,1-2.09.3,1.422,1.422,0,0,1-.794-.73,2.716,2.716,0,0,0,1.5-.4c-1.317.028-1.84-.332-1.785-1.23l.25.136a2.8,2.8,0,0,0,2.83-.032,2.351,2.351,0,0,0,.844-.915,1.925,1.925,0,0,1,1.04-.822,1.056,1.056,0,0,1,1.4.49,1.013,1.013,0,0,1,.076.212,2.373,2.373,0,0,1,0,1.481,2.327,2.327,0,0,1-.223.544,4.223,4.223,0,0,1-3.81,2.237,4.168,4.168,0,0,1-.784-.141Z" fill="#fff"/>
    <path id="Path_319" data-name="Path 319" d="M777.8,794.857a1.515,1.515,0,0,0-1.219-.147c.055-.158.087-.272.131-.381.544-1.421,1.154-2.836,1.7-4.246a2.443,2.443,0,0,1,.136-.294.615.615,0,0,1,.724-.25.593.593,0,0,1,.4.631,1.155,1.155,0,0,1-.071.278l-1.7,4.213A.949.949,0,0,1,777.8,794.857Z" fill="#fff"/>
  </g>
</svg>
