<svg id="Layer_1" data-name="Layer 1" xmlns="http://www.w3.org/2000/svg" viewBox="0 0 29.46 30"><defs><style>.cls-1{fill:#d5a948;fill-rule:evenodd;}</style></defs><path class="cls-1" d="M846.07,550l1.24,0h.41l1,1.07c.21.24.42.49.66.73a10.82,10.82,0,0,1-2.28,2.06c-.58.22-1.16.45-1.71.68L847,559l7.08.08a5.79,5.79,0,0,0,0,.72,7.39,7.39,0,0,0,14.78,0,7.37,7.37,0,0,0-7.39-7.39,7.32,7.32,0,0,0-4.08,1.23,11.08,11.08,0,0,1-1.68-1.58,11.37,11.37,0,0,0,1.06-1.15l.45-.54c.12-.13.24-.28.35-.41h1.16c1.8-3.87.66-9.62-3-12a5,5,0,0,0-3.28-.72,5.38,5.38,0,0,0-3.61.91c-1.92,1.27-3.1,3.47-3.6,6.53-.1,1.52-.17,4.16.9,5.39Zm9.57,5.2a2.48,2.48,0,0,1,.25-.3,4.8,4.8,0,0,0,.63-1.14,9.61,9.61,0,0,1-1.36-1.33,4.62,4.62,0,0,1-4.92,0l-.34-.25a10.18,10.18,0,0,1-1.79,1.7c.07,2.87,5.12,3.95,7.53,1.32Zm5.8-1.94a6.51,6.51,0,1,0,6.52,6.51,6.5,6.5,0,0,0-6.52-6.51Zm-13.25-3.82c-1-3.51-.52-6.74,2.25-9.5a6.46,6.46,0,0,0,3.46,3.86,18.09,18.09,0,0,1,2.61,2.4c.15-.62-.42-1.36-1.11-2.13a3.41,3.41,0,0,1,1.64,1.6,4.46,4.46,0,0,1,.31,2.88,6.63,6.63,0,0,1-.13.67l-.7.83-.45.54a7.09,7.09,0,0,1-1.4,1.39,3.4,3.4,0,0,1-2,.59,3.36,3.36,0,0,1-1.89-.56,6.93,6.93,0,0,1-1.35-1.3l0,0-1.21-1.25Zm-3.86,11a.67.67,0,1,1-.67.67.67.67,0,0,1,.67-.67ZM842.57,563l-1.92,0c-1.24,0-1.37.11-1.24-1.65a8.59,8.59,0,0,1,1.23-3.69,4.54,4.54,0,0,1,1.87-1.81,10.79,10.79,0,0,1,1.17-.65,12.78,12.78,0,0,1,.91,3.68h-1a1,1,0,0,0-1,1V563Zm17.85-5.91V555.7a.65.65,0,0,1,.71-.73h.67a.6.6,0,0,1,.62.59c0,.65,0,1.31,0,2v1.11c0,.3-.09.38-.38.38h-1.23c-.32,0-.41-.08-.41-.41v-1.48Zm1,2.26h.62a.79.79,0,0,1,.82.62c.07.22.12.44.17.66A3,3,0,0,1,863,562c-.15.64-.29,1.29-.44,1.93a.66.66,0,0,1-.63.54,8.81,8.81,0,0,1-.89,0,.66.66,0,0,1-.68-.57c-.13-.55-.26-1.09-.37-1.63a10.63,10.63,0,0,1-.18-1.13,3.08,3.08,0,0,1,.26-1.3.73.73,0,0,1,.73-.49Zm0,4.77h.32c.31,0,.41-.09.48-.39s.09-.43.14-.65c.12-.53.25-1.06.36-1.6a3.15,3.15,0,0,0-.22-1.52.35.35,0,0,0-.36-.25h-1.39a.39.39,0,0,0-.4.3,3.26,3.26,0,0,0-.12,1.88c.18.63.3,1.28.44,1.92a.34.34,0,0,0,.37.3Zm-.47-1.44s-.08.08-.12.08a.18.18,0,0,1-.13-.09c-.06-.2-.1-.4-.14-.6a2.17,2.17,0,0,1-.07-.35.2.2,0,0,1,.09-.13.16.16,0,0,1,.13.07C860.8,562,860.87,562.36,861,562.72Zm-.54-1.72a2.83,2.83,0,0,1,.08-.4.21.21,0,0,1,.13-.11c.09,0,.12.07.1.16a3.56,3.56,0,0,0-.06.44c0,.09,0,.18-.13.18s-.12-.1-.12-.19a.17.17,0,0,1,0-.07Z" transform="translate(-839.37 -537.14)"/></svg>