<svg xmlns="http://www.w3.org/2000/svg" width="15.129" height="16.808" viewBox="0 0 15.129 16.808">
  <g id="Group_2026" data-name="Group 2026" transform="translate(6583.198 4663.684)">
    <g id="Group_2025" data-name="Group 2025">
      <path id="Path_1624" data-name="Path 1624" d="M-6575.646-4654.9a4.364,4.364,0,0,1-3.484-1.719,4.426,4.426,0,0,1-.752-3.867,4.353,4.353,0,0,1,3.044-3.043,4.644,4.644,0,0,1,1.192-.158,4.366,4.366,0,0,1,3.484,1.719,4.431,4.431,0,0,1,.751,3.867,4.353,4.353,0,0,1-3.044,3.044A4.673,4.673,0,0,1-6575.646-4654.9Zm0-8a3.593,3.593,0,0,0-2.779,1.311,3.625,3.625,0,0,0-.759,3,3.637,3.637,0,0,0,2.83,2.829,3.83,3.83,0,0,0,.707.067,3.6,3.6,0,0,0,2.78-1.311,3.626,3.626,0,0,0,.758-3,3.636,3.636,0,0,0-2.83-2.829A3.834,3.834,0,0,0-6575.646-4662.894Z" fill="#97bfb2"/>
      <path id="Path_1625" data-name="Path 1625" d="M-6581.32-4646.876a1.866,1.866,0,0,1-1.337-.559,1.867,1.867,0,0,1-.541-1.345l.011-.705a4.852,4.852,0,0,1,4.846-4.845h.188a3.835,3.835,0,0,0,2.525,1,3.591,3.591,0,0,0,2.384-.9l.16-.089.171-.01a4.958,4.958,0,0,1,4.844,4.933v.644a1.879,1.879,0,0,1-1.877,1.877Zm2.9-6.664a4.01,4.01,0,0,0-3.979,4v.71a1.127,1.127,0,0,0,1.123,1.126l11.277.03a1.132,1.132,0,0,0,1.128-1.1l.014-.712a4.07,4.07,0,0,0-4.008-4.054,4.263,4.263,0,0,1-2.763,1A4.4,4.4,0,0,1-6578.42-4653.54Z" fill="#97bfb2"/>
    </g>
  </g>
</svg>
