<svg xmlns="http://www.w3.org/2000/svg" width="15.201" height="16.859" viewBox="0 0 15.201 16.859">
  <g id="Group_1632" data-name="Group 1632" transform="translate(4923.887 6021.4)">
    <g id="Group_1631" data-name="Group 1631">
      <path id="Path_1413" data-name="Path 1413" d="M-4916.286-6012.585a4.412,4.412,0,0,1-4.407-4.407,4.413,4.413,0,0,1,4.407-4.408,4.413,4.413,0,0,1,4.407,4.408A4.412,4.412,0,0,1-4916.286-6012.585Zm0-8.022a3.619,3.619,0,0,0-3.616,3.615,3.62,3.62,0,0,0,3.616,3.615,3.62,3.62,0,0,0,3.616-3.615A3.619,3.619,0,0,0-4916.286-6020.607Z" fill="#d5a948"/>
      <path id="Path_1414" data-name="Path 1414" d="M-4923.887-6004.541l.038-2.617a4.866,4.866,0,0,1,4.861-4.86h.188a3.842,3.842,0,0,0,2.532,1,3.605,3.605,0,0,0,2.392-.9l.16-.089.171-.011a4.867,4.867,0,0,1,4.859,4.862v2.615Zm14.376-.792.035-1.825a4.083,4.083,0,0,0-4.02-4.067,4.28,4.28,0,0,1-2.772,1,4.4,4.4,0,0,1-2.8-1,4.084,4.084,0,0,0-3.992,4.069v1.787Z" fill="#d5a948"/>
    </g>
  </g>
</svg>
