<svg xmlns="http://www.w3.org/2000/svg" width="14.881" height="20.113" viewBox="0 0 14.881 20.113">
  <path id="Path_38" data-name="Path 38" d="M384.193,868.481c1.247-.9,3.081-2.216,3.371-6.118h.177a.973.973,0,0,0,.979-.965v-.261a.975.975,0,0,0-.979-.966H374.82a.975.975,0,0,0-.981.966v.259a.975.975,0,0,0,.979.966h.434c.29,3.9,2.122,5.221,3.37,6.117.8.577,1.222.907,1.222,1.524s-.417.949-1.218,1.526c-1.294.929-3.218,2.314-3.4,6.563h-.41a.973.973,0,0,0-.981.967v.259a.975.975,0,0,0,.981.966h12.921a.973.973,0,0,0,.979-.966v-.259a.973.973,0,0,0-.979-.965h-.151c-.179-4.251-2.1-5.635-3.4-6.565-.8-.577-1.222-.907-1.222-1.525s.419-.946,1.222-1.523Zm-.53,3.768c1.284.922,2.863,2.06,3.025,5.843H376.129c.161-3.784,1.742-4.921,3.026-5.843.819-.588,1.593-1.144,1.593-2.245s-.774-1.655-1.593-2.244a6.251,6.251,0,0,1-3-5.4h10.508a6.253,6.253,0,0,1-3,5.4c-.819.589-1.594,1.144-1.594,2.245s.774,1.656,1.594,2.244Z" transform="translate(-373.839 -860.171)" fill="#fff" fill-rule="evenodd"/>
</svg>
