<svg xmlns="http://www.w3.org/2000/svg" width="10.083" height="13.409" viewBox="0 0 10.083 13.409">
  <path id="Path_637" data-name="Path 637" d="M-1764.559-6884.441a.289.289,0,0,1-.29-.289.29.29,0,0,1,.29-.289h.993v-1.635a4.434,4.434,0,0,1,2.189-3.65,1,1,0,0,0,.376-.842,1,1,0,0,0-.376-.841,4.434,4.434,0,0,1-2.189-3.65v-1.636h-.993a.289.289,0,0,1-.29-.288.289.289,0,0,1,.29-.289h9.5a.289.289,0,0,1,.29.289.289.289,0,0,1-.29.288h-.993v1.636a4.436,4.436,0,0,1-2.189,3.65,1,1,0,0,0-.376.841,1,1,0,0,0,.376.842,4.436,4.436,0,0,1,2.189,3.65v1.635h.993a.29.29,0,0,1,.29.289.289.289,0,0,1-.29.289Zm1.572-11.2a3.97,3.97,0,0,0,1.933,3.17,1.563,1.563,0,0,1,.633,1.321,1.563,1.563,0,0,1-.633,1.322,3.97,3.97,0,0,0-1.933,3.17v1.635h6.359v-1.635a3.97,3.97,0,0,0-1.933-3.17,1.563,1.563,0,0,1-.633-1.322,1.563,1.563,0,0,1,.633-1.321,3.97,3.97,0,0,0,1.933-3.17v-1.636h-6.359Z" transform="translate(1764.849 6897.85)" fill="#d5a948"/>
</svg>
