<svg id="Layer_1" data-name="Layer 1" xmlns="http://www.w3.org/2000/svg" viewBox="0 0 27.99 28"><defs><style>.cls-1{fill:#d5a948;}</style></defs><path class="cls-1" d="M866.79,552.16v-3.83a2.55,2.55,0,0,0-2.34-2.56l-3.62-6.33a2.64,2.64,0,0,0-1.59-1.23,3.17,3.17,0,0,0-.68-.09,2.63,2.63,0,0,0-1.31.36l-12.38,7.21h-2.18a2.64,2.64,0,0,0-2.63,2.64v15.15a2.64,2.64,0,0,0,2.63,2.64h21.46a2.64,2.64,0,0,0,2.64-2.64v-3.83a2,2,0,0,0,1.26-1.85V554A2,2,0,0,0,866.79,552.16Zm-5.31-8.6,1.22,2.13h-4.9Zm-.74-1.3-5.86,3.43H852.8l7.42-4.31Zm-2.75-2.5a1.13,1.13,0,0,1,.57-.15,1.43,1.43,0,0,1,.29,0,1.09,1.09,0,0,1,.63.44l-9.6,5.61h-2.09ZM865.31,552h-3.68a3.9,3.9,0,1,0,0,7.79h3.68v3.68a1.16,1.16,0,0,1-1.16,1.15H842.69a1.16,1.16,0,0,1-1.15-1.15V548.33a1.16,1.16,0,0,1,1.15-1.15h21.46a1.16,1.16,0,0,1,1.16,1.15Zm-2.31,3.9a1.37,1.37,0,0,1-1.37,1.37,1.37,1.37,0,1,1,0-2.74A1.37,1.37,0,0,1,863,555.91Z" transform="translate(-840.06 -538.12)"/></svg>